<svg width="14" height="14" viewBox="0 0 14 14" fill="none" xmlns="http://www.w3.org/2000/svg">
<path d="M9.91667 8.16667C10.0714 8.16667 10.2197 8.10521 10.3291 7.99581C10.4385 7.88642 10.5 7.73804 10.5 7.58333C10.5 7.42862 10.4385 7.28025 10.3291 7.17085C10.2197 7.06146 10.0714 7 9.91667 7C9.76196 7 9.61358 7.06146 9.50419 7.17085C9.39479 7.28025 9.33333 7.42862 9.33333 7.58333C9.33333 7.73804 9.39479 7.88642 9.50419 7.99581C9.61358 8.10521 9.76196 8.16667 9.91667 8.16667ZM9.91667 10.5C10.0714 10.5 10.2197 10.4385 10.3291 10.3291C10.4385 10.2197 10.5 10.0714 10.5 9.91667C10.5 9.76196 10.4385 9.61358 10.3291 9.50419C10.2197 9.39479 10.0714 9.33333 9.91667 9.33333C9.76196 9.33333 9.61358 9.39479 9.50419 9.50419C9.39479 9.61358 9.33333 9.76196 9.33333 9.91667C9.33333 10.0714 9.39479 10.2197 9.50419 10.3291C9.61358 10.4385 9.76196 10.5 9.91667 10.5ZM7.58333 7.58333C7.58333 7.73804 7.52187 7.88642 7.41248 7.99581C7.30308 8.10521 7.15471 8.16667 7 8.16667C6.84529 8.16667 6.69692 8.10521 6.58752 7.99581C6.47812 7.88642 6.41667 7.73804 6.41667 7.58333C6.41667 7.42862 6.47812 7.28025 6.58752 7.17085C6.69692 7.06146 6.84529 7 7 7C7.15471 7 7.30308 7.06146 7.41248 7.17085C7.52187 7.28025 7.58333 7.42862 7.58333 7.58333ZM7.58333 9.91667C7.58333 10.0714 7.52187 10.2197 7.41248 10.3291C7.30308 10.4385 7.15471 10.5 7 10.5C6.84529 10.5 6.69692 10.4385 6.58752 10.3291C6.47812 10.2197 6.41667 10.0714 6.41667 9.91667C6.41667 9.76196 6.47812 9.61358 6.58752 9.50419C6.69692 9.39479 6.84529 9.33333 7 9.33333C7.15471 9.33333 7.30308 9.39479 7.41248 9.50419C7.52187 9.61358 7.58333 9.76196 7.58333 9.91667ZM4.08333 8.16667C4.23804 8.16667 4.38642 8.10521 4.49581 7.99581C4.60521 7.88642 4.66667 7.73804 4.66667 7.58333C4.66667 7.42862 4.60521 7.28025 4.49581 7.17085C4.38642 7.06146 4.23804 7 4.08333 7C3.92862 7 3.78025 7.06146 3.67085 7.17085C3.56146 7.28025 3.5 7.42862 3.5 7.58333C3.5 7.73804 3.56146 7.88642 3.67085 7.99581C3.78025 8.10521 3.92862 8.16667 4.08333 8.16667ZM4.08333 10.5C4.23804 10.5 4.38642 10.4385 4.49581 10.3291C4.60521 10.2197 4.66667 10.0714 4.66667 9.91667C4.66667 9.76196 4.60521 9.61358 4.49581 9.50419C4.38642 9.39479 4.23804 9.33333 4.08333 9.33333C3.92862 9.33333 3.78025 9.39479 3.67085 9.50419C3.56146 9.61358 3.5 9.76196 3.5 9.91667C3.5 10.0714 3.56146 10.2197 3.67085 10.3291C3.78025 10.4385 3.92862 10.5 4.08333 10.5Z" fill="#C9A12F"/>
<path fill-rule="evenodd" clip-rule="evenodd" d="M4.08332 1.02084C4.19935 1.02084 4.31063 1.06694 4.39268 1.14898C4.47473 1.23103 4.52082 1.34231 4.52082 1.45834V1.90343C4.90699 1.89584 5.33224 1.89584 5.80007 1.89584H8.19932C8.66774 1.89584 9.09299 1.89584 9.47915 1.90343V1.45834C9.47915 1.34231 9.52525 1.23103 9.60729 1.14898C9.68934 1.06694 9.80062 1.02084 9.91665 1.02084C10.0327 1.02084 10.144 1.06694 10.226 1.14898C10.3081 1.23103 10.3542 1.34231 10.3542 1.45834V1.94076C10.5058 1.95243 10.6493 1.96701 10.7852 1.98509C11.4689 2.07726 12.0225 2.27093 12.4594 2.70726C12.8957 3.14418 13.0894 3.69776 13.1816 4.38143C13.2708 5.04643 13.2708 5.89518 13.2708 6.96734V8.19934C13.2708 9.27151 13.2708 10.1208 13.1816 10.7853C13.0894 11.4689 12.8957 12.0225 12.4594 12.4594C12.0225 12.8958 11.4689 13.0894 10.7852 13.1816C10.1202 13.2708 9.27149 13.2708 8.19932 13.2708H5.80124C4.72907 13.2708 3.87974 13.2708 3.21532 13.1816C2.53165 13.0894 1.97807 12.8958 1.54115 12.4594C1.10482 12.0225 0.911153 11.4689 0.818986 10.7853C0.729736 10.1203 0.729736 9.27151 0.729736 8.19934V6.96734C0.729736 5.89518 0.729736 5.04584 0.818986 4.38143C0.911153 3.69776 1.10482 3.14418 1.54115 2.70726C1.97807 2.27093 2.53165 2.07726 3.21532 1.98509C3.35124 1.96701 3.49532 1.95243 3.6464 1.94076V1.45834C3.6464 1.34241 3.69242 1.23122 3.77434 1.14919C3.85626 1.06716 3.96739 1.021 4.08332 1.02084ZM3.33082 2.85251C2.74457 2.93126 2.40624 3.07943 2.15949 3.32618C1.91274 3.57293 1.76457 3.91126 1.68582 4.49809C1.6724 4.59726 1.66132 4.70226 1.65199 4.81251H12.348C12.3387 4.70168 12.3276 4.59726 12.3142 4.49751C12.2354 3.91126 12.0872 3.57293 11.8405 3.32618C11.5937 3.07943 11.2554 2.93126 10.6686 2.85251C10.0695 2.77201 9.27907 2.77084 8.16665 2.77084H5.83332C4.7209 2.77084 3.93107 2.77201 3.33082 2.85251ZM1.60415 7.00001C1.60415 6.50184 1.60415 6.06843 1.61174 5.68751H12.3882C12.3958 6.06843 12.3958 6.50184 12.3958 7.00001V8.16668C12.3958 9.27909 12.3947 10.0695 12.3142 10.6692C12.2354 11.2554 12.0872 11.5938 11.8405 11.8405C11.5937 12.0873 11.2554 12.2354 10.6686 12.3142C10.0695 12.3947 9.27907 12.3958 8.16665 12.3958H5.83332C4.7209 12.3958 3.93107 12.3947 3.33082 12.3142C2.74457 12.2354 2.40624 12.0873 2.15949 11.8405C1.91274 11.5938 1.76457 11.2554 1.68582 10.6686C1.60532 10.0695 1.60415 9.27909 1.60415 8.16668V7.00001Z" fill="#C9A12F"/>
</svg>
